<svg id="Capa_1" enable-background="new 0 0 497 497" height="512" viewBox="0 0 497 497" width="512"
	xmlns="http://www.w3.org/2000/svg">
	<g>
		<path d="m365.283 275.805c38.857-1.985 69.753-34.119 69.753-73.47 0-32.578-21.184-60.192-50.522-69.865z" fill="#423e4f"/>
		<path d="m131.717 275.805c-38.857-1.985-69.753-34.119-69.753-73.47 0-32.578 21.184-60.192 50.522-69.865z" fill="#423e4f"/>
		<path d="m248.5 0c-75.145 0-136.061 60.917-136.061 136.061v69.901c0 75.145 60.917 136.061 136.061 136.061 75.145 0 136.061-60.917 136.061-136.061v-69.901c0-75.144-60.916-136.061-136.061-136.061z" fill="#5c586f"/>
		<path d="m191.298 137.69c4.107 23.057 28.155 40.745 57.202 40.745s53.095-17.688 57.202-40.745l-57.202-26.597z" fill="#423e4f"/>
		<path d="m306.332 130.658c0 2.394-.21 4.738-.631 7.031-15.946-.361-33.664-5.539-46.685-.401-6.791 2.674-14.243 2.674-21.034 0-13.021-5.138-30.739.04-46.685.401-.421-2.294-.631-4.637-.631-7.031 0-26.382 25.891-47.767 57.833-47.767s57.833 21.385 57.833 47.767z" fill="#4f4c5f"/>
		<g fill="#423e4f">
			<path d="m193.292 72.095-27.166-7.279c-3.997-1.068-8.113 1.302-9.186 5.304-1.072 4.001 1.303 8.113 5.304 9.186l9.054 2.426c-.503 1.007-.793 2.14-.793 3.343v11.702c0 4.142 3.358 7.5 7.5 7.5s7.5-3.358 7.5-7.5v-11.239l3.905 1.046c.65.174 1.303.257 1.946.257 3.311 0 6.342-2.21 7.24-5.561 1.071-4-1.303-8.113-5.304-9.185z"/>
			<path d="m340.059 70.12c-1.072-4.001-5.186-6.374-9.186-5.304l-27.166 7.279c-4.001 1.072-6.375 5.185-5.304 9.186.898 3.351 3.928 5.561 7.24 5.561.643 0 1.296-.083 1.946-.257l3.905-1.046v11.238c0 4.142 3.358 7.5 7.5 7.5s7.5-3.358 7.5-7.5v-11.703c0-1.203-.29-2.335-.793-3.343l9.054-2.426c4.001-1.072 6.376-5.184 5.304-9.185z"/>
		</g>
		<path d="m141.717 157.425c0-45.782 2.548-88.266 16.722-123.342-28.207 24.93-46 61.374-46 101.979v69.9c0 73.498 58.28 133.375 131.146 135.963-61.203-38.599-101.868-106.796-101.868-184.5z" fill="#4f4c5f"/>
		<path d="m248.5 267.19c-84.481 0-152.966 68.485-152.966 152.966v76.844h305.932v-76.844c0-84.48-68.485-152.966-152.966-152.966z" fill="#b2b0bc"/>
		<g>
			<path d="m313.228 429.372h-129.456c-4.142 0-7.5-3.358-7.5-7.5s3.358-7.5 7.5-7.5h129.457c4.142 0 7.5 3.358 7.5 7.5s-3.359 7.5-7.501 7.5z" fill="#fff"/>
		</g>
		<g>
			<path d="m296.884 461.11h-96.769c-4.142 0-7.5-3.358-7.5-7.5s3.358-7.5 7.5-7.5h96.769c4.142 0 7.5 3.358 7.5 7.5s-3.358 7.5-7.5 7.5z" fill="#fff"/>
		</g>
		<path d="m269.705 334.523h-13.705v-13.466c0-4.142-3.358-7.5-7.5-7.5s-7.5 3.358-7.5 7.5v13.466h-13.705c-4.142 0-7.5 3.358-7.5 7.5s3.358 7.5 7.5 7.5h13.705v37.505c0 4.142 3.358 7.5 7.5 7.5s7.5-3.358 7.5-7.5v-37.505h13.705c4.142 0 7.5-3.358 7.5-7.5s-3.358-7.5-7.5-7.5z" fill="#fff"/>
		<path d="m144.594 393.669c0-41.534 13.589-79.891 36.555-110.88-50.708 24.909-85.615 77.058-85.615 137.368v76.843h80.306c-19.734-29.577-31.246-65.108-31.246-103.331z" fill="#a19dae"/>
	</g>
</svg>